<?xml version="1.0" encoding="UTF-8" standalone="no" ?>
<!DOCTYPE svg PUBLIC "-//W3C//DTD SVG 1.1//EN" "http://www.w3.org/Graphics/SVG/1.1/DTD/svg11.dtd">
<svg xmlns="http://www.w3.org/2000/svg" xmlns:xlink="http://www.w3.org/1999/xlink" version="1.1" width="500" height="500" viewBox="0 0 500 500" xml:space="preserve">
<desc>Created with Fabric.js 4.6.0</desc>
<defs>
</defs>
<g transform="matrix(1.65 -1.97 0.25 0.21 109.38 176.31)" id="dQkzshbU_LXUCIW40mHsZ"  >
<path style="stroke: rgb(145,29,167); stroke-width: 0; stroke-dasharray: none; stroke-linecap: butt; stroke-dashoffset: 0; stroke-linejoin: miter; stroke-miterlimit: 4; fill: rgb(215,226,219); fill-rule: nonzero; opacity: 1;" vector-effect="non-scaling-stroke"  transform=" translate(0, 0)" d="M -43.40278 -43.40278 L 43.40278 -43.40278 L 43.40278 43.40278 L -43.40278 43.40278 z" stroke-linecap="round" />
</g>
<g transform="matrix(1.75 -1.88 0.23 0.22 386.71 326.86)" id="3fsXlIZgBmF7e04N1mUBO"  >
<path style="stroke: rgb(145,29,167); stroke-width: 0; stroke-dasharray: none; stroke-linecap: butt; stroke-dashoffset: 0; stroke-linejoin: miter; stroke-miterlimit: 4; fill: rgb(215,226,219); fill-rule: nonzero; opacity: 1;" vector-effect="non-scaling-stroke"  transform=" translate(0, 0)" d="M -43.40278 -43.40278 L 43.40278 -43.40278 L 43.40278 43.40278 L -43.40278 43.40278 z" stroke-linecap="round" />
</g>
<g transform="matrix(1.02 -2.96 0.3 0.1 259.42 254.21)" id="qzLMun-lHi41BqH4kYlLB"  >
<path style="stroke: rgb(145,29,167); stroke-width: 0; stroke-dasharray: none; stroke-linecap: butt; stroke-dashoffset: 0; stroke-linejoin: miter; stroke-miterlimit: 4; fill: rgb(215,226,219); fill-rule: nonzero; opacity: 1;" vector-effect="non-scaling-stroke"  transform=" translate(0, 0)" d="M -43.40278 -43.40278 L 43.40278 -43.40278 L 43.40278 43.40278 L -43.40278 43.40278 z" stroke-linecap="round" />
</g>
<g transform="matrix(-1.62 -2 0.25 -0.2 391.95 177.38)" id="LaEr6cxvuDrjMF0ANhABs"  >
<path style="stroke: rgb(145,29,167); stroke-width: 0; stroke-dasharray: none; stroke-linecap: butt; stroke-dashoffset: 0; stroke-linejoin: miter; stroke-miterlimit: 4; fill: rgb(215,226,219); fill-rule: nonzero; opacity: 1;" vector-effect="non-scaling-stroke"  transform=" translate(0, 0)" d="M -43.40278 -43.40278 L 43.40278 -43.40278 L 43.40278 43.40278 L -43.40278 43.40278 z" stroke-linecap="round" />
</g>
<g transform="matrix(-1.72 -1.91 0.24 -0.21 112.02 325.86)" id="GFxmzC8BnKohT1-D8XACf"  >
<path style="stroke: rgb(145,29,167); stroke-width: 0; stroke-dasharray: none; stroke-linecap: butt; stroke-dashoffset: 0; stroke-linejoin: miter; stroke-miterlimit: 4; fill: rgb(215,226,219); fill-rule: nonzero; opacity: 1;" vector-effect="non-scaling-stroke"  transform=" translate(0, 0)" d="M -43.40278 -43.40278 L 43.40278 -43.40278 L 43.40278 43.40278 L -43.40278 43.40278 z" stroke-linecap="round" />
</g>
</svg>