<svg id="visual" viewBox="0 0 960 540" width="960" height="540" xmlns="http://www.w3.org/2000/svg" xmlns:xlink="http://www.w3.org/1999/xlink" version="1.1"><rect x="0" y="0" width="960" height="540" fill="#23ad7f"></rect><path d="M0 354L137 313L274 298L411 328L549 267L686 279L823 275L960 286L960 541L823 541L686 541L549 541L411 541L274 541L137 541L0 541Z" fill="#b3b3b3"></path><path d="M0 369L137 292L274 344L411 352L549 352L686 286L823 308L960 337L960 541L823 541L686 541L549 541L411 541L274 541L137 541L0 541Z" fill="#abadb9"></path><path d="M0 361L137 327L274 323L411 326L549 349L686 367L823 378L960 320L960 541L823 541L686 541L549 541L411 541L274 541L137 541L0 541Z" fill="#a2a7c0"></path><path d="M0 399L137 402L274 400L411 370L549 382L686 345L823 373L960 380L960 541L823 541L686 541L549 541L411 541L274 541L137 541L0 541Z" fill="#98a1c6"></path><path d="M0 416L137 419L274 416L411 368L549 389L686 379L823 405L960 374L960 541L823 541L686 541L549 541L411 541L274 541L137 541L0 541Z" fill="#8d9ccc"></path><path d="M0 387L137 428L274 420L411 419L549 398L686 420L823 381L960 432L960 541L823 541L686 541L549 541L411 541L274 541L137 541L0 541Z" fill="#8296d2"></path><path d="M0 436L137 451L274 413L411 405L549 410L686 409L823 409L960 435L960 541L823 541L686 541L549 541L411 541L274 541L137 541L0 541Z" fill="#7590d8"></path><path d="M0 446L137 429L274 449L411 459L549 428L686 461L823 431L960 437L960 541L823 541L686 541L549 541L411 541L274 541L137 541L0 541Z" fill="#668bde"></path><path d="M0 478L137 475L274 489L411 478L549 459L686 456L823 485L960 459L960 541L823 541L686 541L549 541L411 541L274 541L137 541L0 541Z" fill="#5485e4"></path><path d="M0 485L137 482L274 492L411 480L549 497L686 495L823 481L960 500L960 541L823 541L686 541L549 541L411 541L274 541L137 541L0 541Z" fill="#3b80e9"></path><path d="M0 518L137 507L274 514L411 514L549 508L686 507L823 509L960 525L960 541L823 541L686 541L549 541L411 541L274 541L137 541L0 541Z" fill="#007bef"></path></svg>